PathFileType	4	(X/Y/Z)	Patient4_TMGait_0pt4_01_right_08.trc.trc
DataRate	CameraRate	NumFrames	NumMarkers	Units	OrigDataRate	OrigDataStartFrame	OrigNumFrames
75.268817204301	75.268817204301	4	33	mm	75.268817204301	124	       141
Frame#	Time	Sacral			L.Shoulder			Chest			R.Shoulder			Neck			R.ASIS			L.ASIS			R.Thigh.Superior			R.Thigh.Lateral			R.Thigh.Inferior			R.Patella			L.Thigh.Superior			L.Thigh.Lateral			L.Thigh.Inferior			L.Patella			L.Shank.Superior			L.Shank.Lateral			L.Shank.Inferior			R.Shank.Superior			R.Shank.Lateral			R.Shank.Inferior			R.Heel			R.Midfoot.Superior			R.Midfoot.Lateral			R.Toe			L.Heel			L.Midfoot.Lateral			L.Midfoot.Superior			L.Toe			L.Elbow			L.Wrist			R.Elbow			R.Wrist			
		X1	Y1	Z1	X2	Y2	Z2	X3	Y3	Z3	X4	Y4	Z4	X5	Y5	Z5	X6	Y6	Z6	X7	Y7	Z7	X8	Y8	Z8	X9	Y9	Z9	X10	Y10	Z10	X11	Y11	Z11	X12	Y12	Z12	X13	Y13	Z13	X14	Y14	Z14	X15	Y15	Z15	X16	Y16	Z16	X17	Y17	Z17	X18	Y18	Z18	X19	Y19	Z19	X20	Y20	Z20	X21	Y21	Z21	X22	Y22	Z22	X23	Y23	Z23	X24	Y24	Z24	X25	Y25	Z25	X26	Y26	Z26	X27	Y27	Z27	X28	Y28	Z28	X29	Y29	Z29	X30	Y30	Z30	X31	Y31	Z31	X32	Y32	Z32	X33	Y33	Z33	

124	11.634142857143	789.136590048661	1003.663517796777	454.280324251927	1005.591882560971	1429.076776621155	293.759691560550	1071.189413052677	1365.377438175789	473.862124404965	954.595134391381	1442.380036367418	626.232494480228	956.155304262685	1494.457601190051	444.542771581153	999.009116815403	944.070393247716	606.867887499730	1025.372346531489	959.642897663907	332.011247531993	1064.538709744594	754.213249770597	583.223420844206	995.831239677285	635.403244592634	641.293540143863	1085.972644268710	592.224176852934	567.662497449490	1105.769254125555	509.674050248472	577.917327937905	1026.082068563834	731.719182164866	360.634766121203	916.683493128132	635.217024482164	288.703614158131	973.225246158820	543.727361251424	357.289303563755	958.155269523506	478.310707817593	365.494262745728	927.435881149886	411.649875401204	355.197982400420	828.849319931710	305.212621348497	301.221490626905	868.453314950193	190.300979960935	374.897238592224	1087.752997421045	420.802996665541	585.754949123785	1027.376284160903	308.785052970676	644.764178881278	1093.194802347888	220.803483797711	592.268180575489	990.592951653883	43.303558641749	560.765424956236	1157.425208764384	105.808370335436	601.602788022010	1074.080438528666	37.695803793327	635.227588827140	1279.163636595278	60.234959570389	626.592348746855	731.217805026227	38.446852603858	418.367725182637	804.441886939773	34.988147515087	337.191131692476	888.483853907081	95.456244339320	363.645588216527	1016.860593056368	41.012858369733	334.754286473966	1090.149560307327	1102.486973230240	150.987759123093	1317.574994686707	972.693208960279	166.513111544948	818.085490563640	1118.475576987031	720.789301389173	834.959180235825	856.350045131199	716.199764804868	
125	11.647428571429	790.176756246537	1002.502943628065	457.056399704038	1004.421187807381	1428.629498220334	296.518719013977	1070.701549027435	1365.234803263850	476.533756274414	953.865918201808	1441.594324315896	629.088441839136	955.099892991433	1493.804283419830	447.412351893039	1000.531748041821	943.073758138321	609.097636436810	1026.355143120087	959.440206389038	334.330630309327	1066.242619015639	752.949527130879	584.846859528958	996.135186443076	633.960704996039	641.317195780092	1086.655328693449	591.279579215885	568.043203167080	1104.863119836663	508.017518293617	577.253867873775	1026.716405482044	731.028318685271	361.632598844130	916.176840781399	634.972251370004	290.562337132020	972.883684883678	543.010374369292	358.362197009803	957.699263762406	477.050028296045	366.512675348229	925.894993641787	410.813032979124	356.174270223014	825.634375800989	305.784469106914	302.262850480590	864.247324445977	189.942023671115	375.110031141462	1086.371313157992	418.488323660326	584.941064066916	1024.725611152925	306.996474315173	643.731019968096	1088.849245828215	218.365448004660	590.476801127066	983.239673602198	42.902649788412	559.121242560959	1150.728461789824	103.607542143854	599.260955311296	1066.565499171683	37.280933198155	633.758369778790	1272.156717136453	56.803696423499	624.790512454767	725.802496469202	38.623850833212	418.227455977465	799.118987958426	34.947264558451	337.193269904616	883.220022250747	95.432694031858	363.605993473177	1011.572045156573	40.829647958390	334.705609835861	1089.224174527096	1101.662315350023	154.172948084276	1315.010015411983	968.572769806849	168.403983677899	821.227529507980	1115.997827834082	724.482037743395	844.565360035662	854.424776343941	721.339745299527	
126	11.660714285714	791.214165290096	1001.454916897544	459.947132928356	1003.207004391084	1428.303311843675	299.404375523734	1070.243408494808	1365.209011461021	479.311691137390	953.225297761443	1440.912198054884	632.095029197818	954.084827275097	1493.284471342382	450.435139247594	1002.169800835395	942.229079593957	611.409246357916	1027.263025780089	959.380113206663	336.722183409803	1068.081165897963	751.891803480040	586.266080570512	996.910495456889	632.874924335948	641.537938951792	1087.576002767412	590.573078159510	568.349194990509	1104.217198865983	506.553463398447	576.672932005068	1027.658206689068	730.526820834456	362.635219184112	916.167877267621	634.699527634338	292.502641061497	973.283334281069	542.329425297023	359.500483268263	958.108971129541	475.654917931846	367.519353614044	924.981324961937	409.886411619005	357.190043732315	822.853796929714	306.489390942709	303.406999776354	860.252792163111	189.624668807747	375.357766871033	1085.285573802792	416.463291902123	584.334224436029	1022.584566060069	305.540355966280	643.227219820170	1084.798080464320	216.217599087184	589.042278639631	976.103893537197	42.604651792096	558.048443763933	1144.213629351699	101.801484558460	597.340894084405	1059.338437159760	37.040876125199	632.798176166731	1265.402394691980	53.939327552710	623.379971751200	720.390517170542	39.047735631417	418.059767010745	793.813616808700	34.980745465496	337.200021882421	878.056338657277	95.430512917065	363.517788900566	1006.305136343054	40.612476768302	334.637844181965	1087.822964617533	1100.750681242712	157.557587417058	1311.588362551091	963.860488858292	170.246056001456	824.806041728790	1113.533847818489	728.425271772062	855.012717583390	852.709416294866	726.909307682428	
127	11.674000000000	792.219834944227	1000.579507411870	462.933905871370	1001.967840324552	1428.157841119050	302.397473509163	1069.813221255632	1365.335837011167	482.169760039723	952.694466691382	1440.386882126168	635.230825932297	953.121397539214	1492.952006599156	453.588937744974	1003.874135816502	941.600621433861	613.793342640554	1028.052058218040	959.495901530126	339.172708207852	1069.938375026816	751.072066515418	587.490603979364	998.060966671057	632.176051839883	642.035057257396	1088.586885396214	590.092537106872	568.638644362350	1103.719956415048	505.326452752561	576.285638708075	1028.892811430988	730.273833554645	363.709508346228	916.746155267721	634.407806517322	294.504915634164	974.545072561402	541.719049476125	360.706151782554	959.515612541115	474.152140530579	368.462296541350	924.798650958413	408.898365876926	358.207765333312	820.600044810433	307.390150765514	304.632404857750	856.548111541897	189.419635738374	375.610732674927	1084.394700848125	414.790839413614	584.001580527596	1020.888923948723	304.439485642084	643.260910528699	1081.080264562253	214.439490175395	588.015748171288	969.407913866002	42.399329546603	557.488368293511	1138.058200128883	100.435948970418	595.889693505943	1052.606475730301	36.935422314709	632.303032269556	1259.075653484792	51.736329913363	622.396037132848	715.019664327346	39.866906313490	417.864803331845	788.544346019380	35.163817336852	337.208150151379	873.051036677481	95.470600809649	363.355911300401	1001.060129282289	40.359121281309	334.549965330227	1085.935588815819	1099.808501920588	161.153631003746	1307.242983416193	958.604210197039	172.033545660198	828.841973055121	1111.163601234068	732.610356604952	866.251599100726	851.313349012445	732.840233082829	
